# xmcd CD database file
#
# Track frame offsets:
#	150
#	24511
#	47575
#	67886
#	85811
#	114593
#	142826
#	161986
#	185518
#	211959
#	240281
#
# Disc length: 3617 seconds
#
# Revision: 0
# Processed by: cddbd v1.5.2PL0 Copyright (c) Steve Scherf et al.
# Submitted via: CDex 1.51
#
DISCID=8a0e1f0b
DTITLE=Bobby Timmons - Six Classic Albums CD2
DYEAR=1960
DGENRE=Jazz
TTITLE0=Dat Dere
TTITLE1=My Funny Valentine
TTITLE2=Come Rain Or Come Shine
TTITLE3=Joy Ride
TTITLE4=Soul Time
TTITLE5=So Tired
TTITLE6=The Touch Of Your Lips
TTITLE7=S' Posin'
TTITLE8=Stella B
TTITLE9=You Don't Know What Love Is
TTITLE10=One Mo'
EXTD=YEAR: 1960
EXTT0=
EXTT1=
EXTT2=
EXTT3=
EXTT4=
EXTT5=
EXTT6=
EXTT7=
EXTT8=
EXTT9=
EXTT10=
PLAYORDER=
